Coordinates
version=1
nRows=60
nColumns=12
inDegrees=yes

Units are S.I. units (second, meters, Newtons, ...)
Angles are in degrees

endheader
time	SC_y	SC_z	SC_x	AC_y	AC_z	AC_x	GH_y	GH_z	GH_yy	EL_x	PS_y
       0.0              -12.74          6.318          48.34          40.42          2.084          19.36          143.0          13.82         -43.17          133.6          118.3
  0.009469              -12.75           6.32          48.34          40.43          2.081          19.36          143.0          13.81         -43.17          133.6          118.3
   0.01894              -12.75          6.322          48.35          40.43          2.077          19.36          143.0          13.81         -43.16          133.6          118.3
   0.02841              -12.75          6.324          48.36          40.43          2.074          19.35          143.0          13.81         -43.16          133.6          118.3
   0.03788              -12.75          6.326          48.36          40.44           2.07          19.35          143.0          13.81         -43.15          133.6          118.3
   0.04735              -12.75          6.328          48.37          40.44          2.066          19.35          143.0           13.8         -43.14          133.6          118.2
   0.05682              -12.76           6.33          48.38          40.45          2.062          19.34          143.0           13.8         -43.14          133.6          118.2
   0.06628              -12.76          6.333          48.38          40.45          2.057          19.34          143.0           13.8         -43.13          133.6          118.2
   0.07575              -12.76          6.336          48.39          40.46          2.052          19.34          143.0           13.8         -43.12          133.6          118.2
   0.08522              -12.76          6.338           48.4          40.47          2.047          19.33          143.0          13.79         -43.12          133.6          118.2
   0.09469              -12.77          6.342          48.41          40.47          2.042          19.33          143.0          13.79         -43.11          133.6          118.2
    0.1042              -12.77          6.345          48.42          40.48          2.036          19.32          142.9          13.78          -43.1          133.6          118.1
    0.1136              -12.77          6.349          48.43          40.49          2.029          19.31          142.9          13.78         -43.09          133.6          118.1
    0.1231              -12.78          6.353          48.44           40.5          2.022          19.31          142.9          13.78         -43.08          133.6          118.1
    0.1326              -12.78          6.357          48.46          40.51          2.015           19.3          142.9          13.77         -43.07          133.6          118.1
     0.142              -12.78          6.361          48.47          40.52          2.006          19.29          142.9          13.77         -43.05          133.6          118.0
    0.1515              -12.79          6.366          48.49          40.53          1.997          19.29          142.9          13.76         -43.04          133.6          118.0
     0.161              -12.79          6.372           48.5          40.54          1.988          19.28          142.8          13.75         -43.03          133.6          118.0
    0.1704               -12.8          6.378          48.52          40.55          1.977          19.27          142.8          13.75         -43.01          133.6          117.9
    0.1799               -12.8          6.384          48.54          40.57          1.965          19.26          142.8          13.74         -42.99          133.6          117.9
    0.1894              -12.81          6.392          48.56          40.58          1.952          19.25          142.8          13.73         -42.97          133.6          117.9
    0.1989              -12.82            6.4          48.59           40.6          1.938          19.23          142.7          13.72         -42.95          133.6          117.8
    0.2083              -12.83          6.408          48.61          40.62          1.923          19.22          142.7          13.71         -42.93          133.6          117.7
    0.2178              -12.83          6.418          48.64          40.64          1.905           19.2          142.7           13.7          -42.9          133.6          117.7
    0.2273              -12.84          6.429          48.68          40.66          1.886          19.19          142.6          13.69         -42.87          133.6          117.6
    0.2367              -12.85          6.441          48.71          40.69          1.865          19.17          142.6          13.67         -42.84          133.6          117.6
    0.2462              -12.87          6.454          48.76          40.72          1.841          19.15          142.5          13.66          -42.8          133.6          117.5
    0.2557              -12.88          6.469           48.8          40.75          1.814          19.12          142.5          13.64         -42.76          133.6          117.4
    0.2651              -12.89          6.486          48.85          40.79          1.783          19.09          142.4          13.62         -42.71          133.6          117.3
    0.2746              -12.91          6.506          48.91          40.83          1.749          19.06          142.4          13.59         -42.66          133.7          117.2
    0.2841              -12.93          6.528          48.98          40.88          1.709          19.03          142.3          13.57          -42.6          133.7          117.0
    0.2935              -12.95          6.553          49.06          40.93          1.664          18.99          142.2          13.54         -42.53          133.7          116.9
     0.303              -12.98          6.582          49.15           41.0          1.612          18.94          142.1           13.5         -42.45          133.7          116.7
    0.3125              -13.01          6.616          49.25          41.07          1.551          18.88          142.0          13.46         -42.36          133.7          116.5
     0.322              -13.05          6.656          49.38          41.16           1.48          18.82          141.8          13.42         -42.25          133.7          116.2
    0.3314              -13.09          6.703          49.52          41.26          1.396          18.75          141.6          13.36         -42.12          133.8          115.9
    0.3409              -13.14          6.759          49.69          41.38          1.296          18.66          141.4           13.3         -41.97          133.8          115.6
    0.3504               -13.2          6.826           49.9          41.52          1.177          18.55          141.2          13.22         -41.79          133.8          115.2
    0.3598              -13.27          6.907          50.14           41.7          1.032          18.42          140.9          13.12         -41.57          133.8          114.7
    0.3693              -13.36          7.006          50.45          41.91         0.8557          18.26          140.5           13.0          -41.3          133.9          114.1
    0.3788              -13.47          7.128          50.82          42.18         0.6378          18.06          140.1          12.86         -40.97          134.0          113.4
    0.3882               -13.6           7.28          51.29          42.51          0.366          17.82          139.5          12.68         -40.55          134.0          112.4
    0.3977              -13.78          7.472          51.88          42.92        0.02371          17.51          138.8          12.45         -40.03          134.1          111.3
    0.4072              -13.99          7.715          52.62          43.45        -0.4115          17.12          137.9          12.17         -39.37          134.2          109.8
    0.4166              -14.27          8.027          53.58          44.13        -0.9684          16.62          136.8           11.8         -38.52          134.4          107.9
    0.4261              -14.63          8.428          54.81          44.99         -1.683          15.97          135.3          11.32         -37.43          134.6          105.4
    0.4356              -15.09          8.939          56.38           46.1         -2.596          15.15          133.5          10.72         -36.04          134.8          102.3
    0.4451              -15.66          9.582          58.35           47.5         -3.744          14.12          131.1          9.959         -34.29          135.1          98.38
    0.4545              -16.36          10.37          60.75          49.19         -5.143          12.86          128.3          9.033         -32.16          135.5          93.59
     0.464              -17.18          11.27          63.54          51.16         -6.765           11.4          125.0           7.96         -29.69          135.9          88.05
    0.4735              -18.05          12.26          66.55          53.29         -8.521          9.824          121.4          6.798         -27.01          136.4          82.05
    0.4829              -18.93          13.24          69.57          55.42         -10.28          8.244          117.8          5.636         -24.33          136.9          76.05
    0.4924              -19.75          14.15          72.35          57.39          -11.9          6.785          114.5          4.563         -21.86          137.3           70.5
    0.5019              -20.45          14.93          74.76          59.09          -13.3          5.526          111.6          3.637         -19.73          137.7          65.72
    0.5113              -21.02          15.57          76.73          60.48         -14.45          4.494          109.3          2.877         -17.98          138.0          61.79
    0.5208              -21.48          16.09           78.3          61.59         -15.36          3.672          107.4          2.273         -16.59          138.2          58.67
    0.5303              -21.84          16.49          79.53          62.46         -16.07          3.029          106.0            1.8          -15.5          138.4          56.23
    0.5397              -22.12           16.8          80.48          63.13         -16.63          2.528          104.8          1.431         -14.65          138.6          54.33
    0.5492              -22.33          17.04          81.23          63.66         -17.07          2.136          104.0          1.143         -13.99          138.7          52.84
    0.5587               -22.5          17.23          81.82          64.08         -17.41          1.829          103.3         0.9163         -13.46          138.8          51.67
